<?xml version="1.0" encoding="UTF-8" standalone="no"?>
<!DOCTYPE svg PUBLIC "-//W3C//DTD SVG 20010904//EN"
              "http://www.w3.org/TR/2001/REC-SVG-20010904/DTD/svg10.dtd">

<svg xmlns="http://www.w3.org/2000/svg"
     width="0.166667in" height="0.166667in"
     viewBox="0 0 50 50">
  <path id="Selection"
        fill="black" stroke="black" stroke-width="1"
        d="M 2.00,16.00
           C 6.93,16.00 11.13,14.66 13.00,20.00
             9.81,18.87 9.14,18.13 7.00,21.00
             7.00,21.00 9.00,19.00 9.00,19.00
             9.00,19.00 10.00,19.00 10.00,19.00
             10.00,19.00 9.00,25.00 9.00,25.00
             9.00,25.00 9.00,24.00 9.00,24.00
             9.00,24.00 7.00,23.00 7.00,23.00
             7.00,23.00 8.00,28.00 8.00,28.00
             8.00,28.00 2.00,28.00 2.00,28.00
             4.35,22.41 4.35,21.59 2.00,16.00 Z
           M 22.00,26.00
           C 22.00,26.00 16.05,21.31 16.05,21.31
             13.26,16.80 20.55,16.26 23.00,16.00
             23.00,16.00 24.00,20.00 24.00,20.00
             24.00,20.00 17.00,19.00 17.00,19.00
             19.51,19.85 25.03,21.07 24.04,24.82
             23.72,26.00 22.87,26.73 21.81,27.23
             20.52,27.84 17.56,27.84 16.00,28.00
             16.00,28.00 16.00,23.00 16.00,23.00
             16.00,23.00 22.00,26.00 22.00,26.00 Z
           M 25.00,16.00
           C 29.93,16.00 34.13,14.66 36.00,20.00
             32.81,18.87 32.14,18.13 30.00,21.00
             30.00,21.00 32.00,19.00 32.00,19.00
             32.00,19.00 33.00,19.00 33.00,19.00
             33.00,19.00 32.00,25.00 32.00,25.00
             32.00,25.00 31.00,23.00 31.00,23.00
             31.00,23.00 30.00,23.00 30.00,23.00
             30.00,23.00 31.00,28.00 31.00,28.00
             31.00,28.00 25.00,28.00 25.00,28.00
             27.33,22.48 27.33,21.52 25.00,16.00 Z
           M 37.00,16.00
           C 39.30,16.00 44.62,15.65 46.53,17.01
             48.58,18.70 49.07,25.32 46.53,26.98
             44.71,28.33 39.45,28.00 37.00,28.00
             39.34,22.45 39.34,21.55 37.00,16.00 Z
           M 45.00,18.00
           C 45.00,18.00 42.00,18.00 42.00,18.00
             42.00,18.00 42.00,21.00 42.00,21.00
             42.00,21.00 45.00,21.00 45.00,21.00
             45.00,21.00 45.00,18.00 45.00,18.00 Z
           M 46.00,24.00
           C 46.00,24.00 42.00,23.00 42.00,23.00
             42.00,23.00 42.00,26.00 42.00,26.00
             42.00,26.00 46.00,24.00 46.00,24.00 Z
           M 2.00,29.00
           C 2.00,29.00 8.00,29.00 8.00,29.00
             8.00,29.00 7.00,34.00 7.00,34.00
             7.00,34.00 10.00,32.00 10.00,32.00
             10.00,32.00 10.00,38.00 10.00,38.00
             10.00,38.00 9.00,38.00 9.00,38.00
             9.00,38.00 7.00,36.00 7.00,36.00
             9.14,38.87 9.81,38.13 13.00,37.00
             11.13,42.34 6.93,41.00 2.00,41.00
             4.35,35.41 4.35,34.59 2.00,29.00 Z
           M 16.00,29.00
           C 18.70,29.26 27.77,30.11 23.22,35.20
             23.22,35.20 17.00,39.00 17.00,39.00
             17.00,39.00 24.00,37.00 24.00,37.00
             24.00,37.00 23.00,41.00 23.00,41.00
             20.55,40.75 13.27,40.18 16.05,35.69
             16.05,35.69 22.00,31.00 22.00,31.00
             22.00,31.00 15.00,34.00 15.00,34.00
             15.00,34.00 16.00,29.00 16.00,29.00 Z
           M 25.00,29.00
           C 25.00,29.00 31.00,29.00 31.00,29.00
             31.00,29.00 30.00,34.00 30.00,34.00
             30.00,34.00 33.00,32.00 33.00,32.00
             33.00,32.00 33.00,38.00 33.00,38.00
             33.00,38.00 32.00,38.00 32.00,38.00
             32.00,38.00 30.00,36.00 30.00,36.00
             32.14,38.87 32.81,38.13 36.00,37.00
             34.13,42.34 29.93,41.00 25.00,41.00
             26.93,36.43 26.93,33.57 25.00,29.00 Z
           M 37.00,29.00
           C 39.47,29.00 44.68,28.67 46.53,30.02
             49.10,31.67 48.55,38.28 46.53,39.98
             44.64,41.36 39.29,41.00 37.00,41.00
             39.09,36.04 39.09,33.96 37.00,29.00 Z
           M 46.00,32.00
           C 46.00,32.00 42.00,31.00 42.00,31.00
             42.00,31.00 42.00,34.00 42.00,34.00
             42.00,34.00 46.00,32.00 46.00,32.00 Z
           M 45.00,36.00
           C 45.00,36.00 42.00,36.00 42.00,36.00
             42.00,36.00 42.00,39.00 42.00,39.00
             42.00,39.00 45.00,39.00 45.00,39.00
             45.00,39.00 45.00,36.00 45.00,36.00 Z" />
</svg>
